<svg  viewBox="0 0 135 24" fill="none" xmlns="http://www.w3.org/2000/svg">
<g clip-path="url(#clip0_1_733)">
<path fill-rule="evenodd" clip-rule="evenodd" d="M30.2733 6.75125C33.4209 6.75125 36.2116 8.38325 37.607 10.8472L33.356 13.2792C32.8044 12.1592 31.6362 11.4872 30.2084 11.4872C28.0992 11.4872 26.5416 12.9912 26.5416 15.1992C26.5416 17.4072 28.0992 18.9112 30.2084 18.9112C31.6362 18.9112 32.8368 18.2393 33.356 17.1192L37.607 19.5192C36.2116 22.0152 33.4534 23.6472 30.2733 23.6472C25.3409 23.6472 21.6741 19.9672 21.6741 15.1992C21.6741 10.4312 25.3409 6.75125 30.2733 6.75125ZM63.7615 6.75125C68.4992 6.75125 72.0037 10.3672 72.0037 15.1992C72.0037 15.8712 71.9388 16.5112 71.809 17.1192H60.2894C60.9059 18.7832 62.3986 19.3592 64.1833 19.3592C65.5138 19.3592 66.6495 18.8472 67.2985 18.1432L71.1925 20.3512C69.6025 22.5272 67.2012 23.6472 64.1184 23.6472C58.5695 23.6472 55.1298 19.9672 55.1298 15.1992C55.1298 10.4312 58.6344 6.75125 63.7615 6.75125ZM91.4087 0.799249V8.70325C92.4796 7.48725 94.0696 6.75125 96.2437 6.75125C100.495 6.75125 103.999 10.4312 103.999 15.1992C103.999 19.9672 100.495 23.6472 96.2437 23.6472C94.0696 23.6472 92.4796 22.9112 91.4087 21.6952V23.1992H86.5413V0.799249H91.4087ZM126.065 6.75125C130.835 6.75125 134.664 10.4312 134.664 15.1992C134.664 19.9672 130.835 23.6472 126.065 23.6472C121.295 23.6472 117.466 19.9672 117.466 15.1992C117.466 10.4312 121.295 6.75125 126.065 6.75125ZM7.94783 2.71925V7.19925H11.2902V11.8072H7.94783V17.4712C7.94783 18.8472 9.14847 18.9752 11.2902 18.8472V23.1992C4.93 23.8392 3.08036 21.9512 3.08036 17.4712V11.8072H0.484375V7.19925H3.08036V4.15925L7.94783 2.71925ZM80.4407 2.71925V7.19925H83.783V11.8072H80.4407V17.4712C80.4407 18.8472 81.6413 18.9752 83.783 18.8472V23.1992C77.4229 23.8392 75.5732 21.9512 75.5732 17.4712V11.8072H72.9772V7.19925H75.5732V4.15925L80.4407 2.71925ZM18.9159 7.19925V23.1992H14.0484V7.19925H18.9159ZM44.4214 0.799249V14.2072L49.2889 7.19925H54.9676L49.0617 15.1992L55.1298 23.1992H49.6134L44.4214 16.1272V23.1992H39.5539V0.799249H44.4214ZM116.492 6.87925V12.3193C114.481 11.9992 111.625 12.7992 111.625 15.9672V23.1992H106.757V7.19925H111.625V10.0472C112.274 7.90325 114.448 6.87925 116.492 6.87925ZM95.2703 11.2952C93.0312 11.2952 91.4087 12.7992 91.4087 15.1992C91.4087 17.5992 93.0312 19.1032 95.2703 19.1032C97.5093 19.1032 99.1318 17.5992 99.1318 15.1992C99.1318 12.7992 97.5093 11.2952 95.2703 11.2952ZM126.065 11.4232C123.956 11.4232 122.333 12.9272 122.333 15.1992C122.333 17.4712 123.956 18.9752 126.065 18.9752C128.174 18.9752 129.797 17.4712 129.797 15.1992C129.797 12.9272 128.174 11.4232 126.065 11.4232ZM63.729 11.0072C61.8794 11.0072 60.6463 11.9032 60.192 13.5352H67.1687C66.6495 11.6792 65.1893 11.0072 63.729 11.0072ZM16.4821 0.03125C18.0722 0.03125 19.4026 1.34325 19.4026 2.91125C19.4026 4.47925 18.0722 5.79125 16.4821 5.79125C14.8921 5.79125 13.5616 4.47925 13.5616 2.91125C13.5616 1.34325 14.8921 0.03125 16.4821 0.03125Z" fill="#040FD9"/>
</g>
<defs>
<clipPath id="clip0_1_733">
<rect width="134.667" height="24" fill="white"/>
</clipPath>
</defs>
</svg>
